# xmcd
#
# Track frame offsets:
#	150
#	15501
#	34176
#	43476
#	61529
#	74646
#	85629
#	101472
#	114688
#
# Disc length: 1754 seconds
#
# Revision: 1
# Processed by: cddbd v1.5.2PL0 Copyright (c) Steve Scherf et al.
# Submitted via: audiograbber 1.83.01
#
DISCID=7106d809
DTITLE=Craig Cassler - Back To You
DYEAR=2014
DGENRE=Blues
TTITLE0=Back To You
TTITLE1=Take My Hand
TTITLE2=25 Cents
TTITLE3=Whiskey Bent
TTITLE4=Three Words
TTITLE5=Cell Block Blues
TTITLE6=New Orleans
TTITLE7=Hej Mr Bartender
TTITLE8=Ease Yor Sorry
EXTD=
EXTT0=
EXTT1=
EXTT2=
EXTT3=
EXTT4=
EXTT5=
EXTT6=
EXTT7=
EXTT8=
PLAYORDER=
